<svg width="134" height="20" viewBox="0 0 134 20" fill="none" xmlns="http://www.w3.org/2000/svg">
<path d="M72.0971 18.9649H70.3746L76.9217 0.966951H78.6793L85.2264 18.9649H83.504L77.862 3.10245H77.739L72.0971 18.9649ZM73.3362 12.0662H82.2648V13.5426H73.3362V12.0662Z" fill="black"/>
<path d="M88.311 18.9649V0.966951H94.3836C95.5553 0.966951 96.5308 1.17201 97.31 1.58211C98.095 1.99222 98.6838 2.55173 99.0764 3.26063C99.4689 3.96953 99.6652 4.7751 99.6652 5.67734C99.6652 6.42725 99.5392 7.06878 99.2873 7.60192C99.0354 8.13506 98.6926 8.56568 98.2591 8.89376C97.8255 9.22185 97.3422 9.45913 96.8091 9.60559V9.7462C97.3891 9.78721 97.9515 9.99227 98.4964 10.3614C99.0412 10.7246 99.4894 11.2343 99.8409 11.8905C100.192 12.5467 100.368 13.3317 100.368 14.2457C100.368 15.1538 100.166 15.9652 99.7618 16.68C99.3576 17.3889 98.7366 17.9484 97.8988 18.3585C97.0668 18.7627 96.0064 18.9649 94.7175 18.9649H88.311ZM89.9544 17.4885H94.7175C96.106 17.4885 97.1313 17.1809 97.7933 16.5657C98.4612 15.9506 98.7952 15.1772 98.7952 14.2457C98.7952 13.5602 98.6282 12.9392 98.2942 12.3826C97.9661 11.8202 97.5004 11.3749 96.8969 11.0468C96.2994 10.7187 95.5963 10.5547 94.7878 10.5547H89.9544V17.4885ZM89.9544 9.09589H94.533C95.2419 9.09589 95.8629 8.94942 96.396 8.65648C96.9292 8.36355 97.3451 7.9593 97.6439 7.44374C97.9427 6.92817 98.0921 6.33937 98.0921 5.67734C98.0921 4.72237 97.7816 3.9461 97.1606 3.34851C96.5396 2.74506 95.6139 2.44334 94.3836 2.44334H89.9544V9.09589Z" fill="black"/>
<path d="M103.244 2.44334V0.966951H116.294V2.44334H110.591V18.9649H108.948V2.44334H103.244Z" fill="black"/>
<path d="M134 9.9659C134 11.8407 133.666 13.4723 132.998 14.8608C132.33 16.2435 131.41 17.3156 130.239 18.0773C129.073 18.833 127.731 19.2109 126.214 19.2109C124.696 19.2109 123.352 18.833 122.18 18.0773C121.014 17.3156 120.097 16.2435 119.429 14.8608C118.767 13.4723 118.436 11.8407 118.436 9.9659C118.436 8.09112 118.767 6.4624 119.429 5.07975C120.097 3.69124 121.017 2.6191 122.189 1.86333C123.361 1.1017 124.702 0.720886 126.214 0.720886C127.731 0.720886 129.073 1.1017 130.239 1.86333C131.41 2.6191 132.33 3.69124 132.998 5.07975C133.666 6.4624 134 8.09112 134 9.9659ZM132.401 9.9659C132.401 8.35476 132.131 6.97504 131.592 5.82674C131.053 4.67257 130.318 3.79084 129.386 3.18154C128.455 2.57223 127.397 2.26758 126.214 2.26758C125.036 2.26758 123.982 2.57223 123.05 3.18154C122.119 3.79084 121.38 4.66964 120.836 5.81795C120.297 6.96625 120.027 8.3489 120.027 9.9659C120.027 11.577 120.297 12.9568 120.836 14.1051C121.375 15.2534 122.11 16.1351 123.041 16.7503C123.973 17.3596 125.03 17.6642 126.214 17.6642C127.397 17.6642 128.455 17.3596 129.386 16.7503C130.324 16.141 131.062 15.2622 131.601 14.1139C132.14 12.9597 132.406 11.577 132.401 9.9659Z" fill="black"/>
<path d="M10.8884 18.9649L5.10585 11.2929H3.80522V18.9649H0V0.96698H3.80522V8.1556H4.56978L10.5456 0.96698H15.2824L8.26076 9.31562L15.6076 18.9649H10.8884Z" fill="#6C47FF"/>
<path d="M19.4633 19.2109V16.1176H20.4388C20.9251 16.1176 21.3176 16.059 21.6164 15.9418C21.9152 15.8188 22.1524 15.6401 22.3282 15.4057C22.5098 15.1655 22.6622 14.8667 22.7852 14.5093L23.0049 13.9205L16.4666 0.96698H20.4036L24.6395 9.82532L28.181 0.96698H32.0654L25.861 15.4321C25.5622 16.1 25.2078 16.721 24.7976 17.2952C24.3934 17.8693 23.8749 18.3321 23.2422 18.6837C22.6094 19.0352 21.8009 19.2109 20.8167 19.2109H19.4633Z" fill="#6C47FF"/>
<path d="M49.4239 0.96698V18.9649H45.6626V4.06037H38.3862V18.9649H34.6249V0.96698H49.4239Z" fill="#6C47FF"/>
<path d="M53.0468 0.96698H56.8432V12.286H56.9926L64.77 0.96698H68.1007V18.9649H64.2955V7.6371H64.1637L56.3423 18.9649H53.0468V0.96698Z" fill="#6C47FF"/>
</svg>
