<svg width="24" height="24" viewBox="0 0 24 24" fill="none" xmlns="http://www.w3.org/2000/svg">
<rect width="24" height="24" rx="3" fill="#4F2CD9"/>
<path d="M18 17.139L14.7167 13.8551C15.3792 13.005 15.7427 11.9668 15.7427 10.8714C15.7427 9.5701 15.2361 8.34678 14.3154 7.42731C13.3953 6.50662 12.1726 6 10.8714 6C9.5701 6 8.34739 6.50662 7.42731 7.42731C6.50723 8.34678 6 9.5701 6 10.8714C6 12.1726 6.50723 13.396 7.42731 14.3154C8.34739 15.2361 9.5701 15.7427 10.8714 15.7427C11.9668 15.7427 13.005 15.3798 13.8551 14.7161L17.139 17.9994L18 17.139ZM10.8714 14.5249C9.89587 14.5249 8.97823 14.1449 8.28832 13.455C7.59781 12.7651 7.21784 11.8469 7.21784 10.8714C7.21784 9.89587 7.59781 8.97823 8.28832 8.28832C8.97823 7.59781 9.89587 7.21784 10.8714 7.21784C11.8469 7.21784 12.7645 7.59781 13.4544 8.28832C14.1449 8.97823 14.5249 9.89587 14.5249 10.8714C14.5249 11.8469 14.1449 12.7651 13.4544 13.455C12.7645 14.1449 11.8469 14.5249 10.8714 14.5249Z" fill="white"/>
</svg>
